<svg xmlns="http://www.w3.org/2000/svg" xmlns:xlink="http://www.w3.org/1999/xlink" width="253.026" height="60.468" viewBox="0 0 253.026 60.468"><defs><clipPath id="a"><rect width="60.468" height="60.468" fill="#ed7d3a"/></clipPath></defs><g transform="translate(-140.974 -31)"><g transform="translate(212.563 32.704)"><text transform="translate(92.437 26.296)" fill="#070707" font-size="26" font-family="Quicksand-Regular, Quicksand" letter-spacing="-0.015em"><tspan x="-88.101" y="0">Tecendo </tspan><tspan y="0" fill="#5a5a66">textos</tspan></text><text transform="translate(6.437 50.296)" fill="#070707" font-size="18" font-family="SegoeUI, Segoe UI" letter-spacing="0.054em"><tspan x="0" y="0">Soluções editoriais</tspan></text></g><g transform="translate(140.974 31)"><g transform="translate(0 0)" clip-path="url(#a)"><path d="M.4,31.207h0a1.376,1.376,0,0,1,0-1.945L29.262.4a1.375,1.375,0,0,1,1.945,1.945L2.349,31.207a1.376,1.376,0,0,1-1.945,0" transform="translate(0 0)" fill="#ed7d3a"/><path d="M8.273,44.382h0a1.376,1.376,0,0,1,0-1.945L19.8,30.912a1.376,1.376,0,1,1,1.945,1.945L10.219,44.382a1.376,1.376,0,0,1-1.945,0" transform="translate(-2.333 -9.045)" fill="#ed7d3a"/><path d="M14.617,49.506h0c-.537-.537-.946-.91-.409-1.447L31.07,31.2a1.375,1.375,0,1,1,1.945,1.945L16.153,50c-.537.538-1,.039-1.536-.5" transform="translate(-4.137 -9.129)" fill="#ed7d3a"/><path d="M11.9,31.571h0a1.388,1.388,0,0,0,1.4,1.375l27.905,0c.243.2.243-.445.243-1.205h.7c0-.76-.173-1.546-.946-1.546L13.3,30.2a1.388,1.388,0,0,0-1.4,1.375" transform="translate(-3.527 -8.951)" fill="#ed7d3a"/><path d="M21.9,21.794h0a1.375,1.375,0,0,0,1.375,1.375l27.077,0a1.375,1.375,0,1,0,0-2.751l-27.078,0A1.376,1.376,0,0,0,21.9,21.794" transform="translate(-6.493 -6.052)" fill="#ed7d3a"/><path d="M30.9,12.018h0a1.411,1.411,0,0,0,1.444,1.375H46.468a1.377,1.377,0,1,0,0-2.751H32.34A1.411,1.411,0,0,0,30.9,12.018" transform="translate(-9.159 -3.155)" fill="#ed7d3a"/><path d="M41.361.457h0a1.4,1.4,0,0,1,1.977,0L72.009,29.128a1.4,1.4,0,0,1-1.977,1.977L41.361,2.434a1.4,1.4,0,0,1,0-1.977" transform="translate(-12.14 -0.015)" fill="#ed7d3a"/><path d="M.422,41.4h0a1.4,1.4,0,0,1,1.977,0L31.07,70.067a1.4,1.4,0,0,1-1.977,1.977L.422,43.373a1.4,1.4,0,0,1,0-1.977" transform="translate(-0.004 -12.151)" fill="#ed7d3a"/><path d="M72.226,41.421h0a1.376,1.376,0,0,1,0,1.945L43.367,72.226a1.375,1.375,0,0,1-1.945,0h0a1.374,1.374,0,0,1,0-1.945L70.281,41.421a1.376,1.376,0,0,1,1.945,0" transform="translate(-12.16 -12.16)" fill="#ed7d3a"/><path d="M72.323,34.551h0a1.376,1.376,0,0,1,0,1.945L60,48.819a1.376,1.376,0,0,1-1.945-1.945L70.377,34.551a1.376,1.376,0,0,1,1.945,0" transform="translate(-17.091 -10.124)" fill="#ed7d3a"/><path d="M63.539,27.68h0a1.376,1.376,0,0,1,0,1.945L46.678,46.487a1.376,1.376,0,0,1-1.945-1.945L61.594,27.68a1.376,1.376,0,0,1,1.945,0" transform="translate(-13.141 -8.087)" fill="#ed7d3a"/><path d="M51.14,21.924c.537.537,1.147.416.609.953L23.215,51.411a1.376,1.376,0,0,1-1.945-1.945L49.8,20.931c.537-.537,1.335.993,1.335.993" transform="translate(-6.186 -6.171)" fill="#ed7d3a"/><path d="M61.707,53.216h0a1.4,1.4,0,0,0-1.428-1.375l-28.445,0a1.376,1.376,0,1,0,0,2.751l28.445,0a1.4,1.4,0,0,0,1.428-1.375" transform="translate(-9.014 -15.368)" fill="#ed7d3a"/><path d="M52.076,62.992h0a1.389,1.389,0,0,0-1.4-1.375l-27.62,0a1.376,1.376,0,1,0,0,2.751l27.619,0a1.39,1.39,0,0,0,1.4-1.375" transform="translate(-6.418 -18.266)" fill="#ed7d3a"/><path d="M47.772,72.769h0a1.406,1.406,0,0,0-1.435-1.375H32.3a1.377,1.377,0,1,0,0,2.751H46.338a1.406,1.406,0,0,0,1.435-1.375" transform="translate(-9.15 -21.165)" fill="#ed7d3a"/></g></g></g></svg>